<?xml version="1.0" encoding="UTF-8"?>
<svg width="169px" height="252px" viewBox="0 0 169 252" version="1.1" xmlns="http://www.w3.org/2000/svg" xmlns:xlink="http://www.w3.org/1999/xlink">
    <title>371198BB-F114-4570-B3C4-A8F857D6C26B</title>
    <defs>
        <path d="M24,0 L133,0 C146.254834,-2.4348735e-15 157,10.745166 157,24 L157,216 C157,229.254834 146.254834,240 133,240 L24,240 C10.745166,240 -5.48217835e-15,229.254834 0,216 L0,24 C-1.623249e-15,10.745166 10.745166,2.4348735e-15 24,0 Z" id="path-1"></path>
        <filter x="-6.4%" y="-3.3%" width="112.7%" height="108.3%" filterUnits="objectBoundingBox" id="filter-2">
            <feOffset dx="0" dy="2" in="SourceAlpha" result="shadowOffsetOuter1"></feOffset>
            <feGaussianBlur stdDeviation="3" in="shadowOffsetOuter1" result="shadowBlurOuter1"></feGaussianBlur>
            <feComposite in="shadowBlurOuter1" in2="SourceAlpha" operator="out" result="shadowBlurOuter1"></feComposite>
            <feColorMatrix values="0 0 0 0 0   0 0 0 0 0   0 0 0 0 0  0 0 0 0.1 0" type="matrix" in="shadowBlurOuter1"></feColorMatrix>
        </filter>
        <path d="M24,0 L133,0 C146.254834,-2.4348735e-15 157,10.745166 157,24 L157,216 C157,229.254834 146.254834,240 133,240 L24,240 C10.745166,240 -5.48217835e-15,229.254834 0,216 L0,24 C-1.623249e-15,10.745166 10.745166,2.4348735e-15 24,0 Z" id="path-3"></path>
    </defs>
    <g id="FINAL" stroke="none" stroke-width="1" fill="none" fill-rule="evenodd">
        <g id="Happy-Hunny-Landing-Phase1-Start" transform="translate(-404.000000, -76.000000)">
            <g id="Game" transform="translate(79.000000, 80.000000)">
                <g id="card-3" transform="translate(330.927720, 0.000000)">
                    <g id="Rectangle-Copy-20">
                        <use fill="black" fill-opacity="1" filter="url(#filter-2)" xlink:href="#path-1"></use>
                        <path stroke="#FFFFFF" stroke-width="5" d="M133,2.5 C138.937061,2.5 144.312061,4.90646947 148.202796,8.7972042 C152.093531,12.6879389 154.5,18.0629389 154.5,24 L154.5,24 L154.5,216 C154.5,221.937061 152.093531,227.312061 148.202796,231.202796 C144.312061,235.093531 138.937061,237.5 133,237.5 L133,237.5 L24,237.5 C18.0629389,237.5 12.6879389,235.093531 8.7972042,231.202796 C4.90646947,227.312061 2.5,221.937061 2.5,216 L2.5,216 L2.5,24 C2.5,18.0629389 4.90646947,12.6879389 8.7972042,8.7972042 C12.6879389,4.90646947 18.0629389,2.5 24,2.5 L24,2.5 Z" stroke-linejoin="square" fill="#FFD343" fill-rule="evenodd"></path>
                    </g>
                    <g id="card-dotted-line">
                        <mask id="mask-4" fill="white">
                            <use xlink:href="#path-3"></use>
                        </mask>
                        <g id="Mask"></g>
                        <path d="M375.571655,12.0707703 C349.809021,35.8719289 310.342893,67.4653113 284.641418,81.9187012 C247.835693,102.616638 242.858276,112.069637 165,132.112427 C126.826587,141.939278 74.3650967,149.531915 52.5477295,106.506653 C42.6660878,87.0194149 61.054812,67.7439488 80.9447021,78.6975708 C101.59725,90.0711984 92.2530459,125.633662 72.7974854,132.112427 C61.3635877,135.919952 54.4022795,137.064205 42.9204102,137.486694 C1.50013403,139.010803 -40.6189441,134.778177 -81.3604126,141.47876 C-211.066772,162.811035 -230.040112,252.888783 -233.023865,268.050476 C-243.444092,321 -233.023865,395.723816 -165,421.943909 C-81.9979657,453.937402 -34.8723361,392.280536 39.6202393,356.917603 C117.387748,320 124.137693,358.062027 118.982422,381.199463 C117.387748,388.356537 93.3903198,423.641418 119.567017,432.494629 C161.670813,446.734537 189.477042,409.829935 231.241577,402.735596 C245.567418,400.302135 314.295898,388.647522 296.677612,460 C284.932088,507.568319 239.30485,525.194427 159.795898,512.878326" id="Path-7" stroke="#D6A12B" stroke-width="2" opacity="0.400000006" stroke-linecap="round" stroke-linejoin="round" stroke-dasharray="8,8" mask="url(#mask-4)"></path>
                    </g>
                    <path d="M108.945833,33 C113.087969,33 116.837969,34.6789322 119.552435,37.3933983 C122.266901,40.1078644 123.945833,43.8578644 123.945833,48 L123.945833,48 L123.945833,190.783963 C123.945833,194.879933 122.302764,198.597134 119.635831,201.306508 C116.968897,204.015883 113.278098,205.717431 109.182639,205.782094 L109.182639,205.782094 L48.4006331,206.741781 C44.2590137,206.807173 40.4829757,205.187651 37.7259945,202.516377 C34.9714683,199.847481 33.2341849,196.128705 33.1658756,191.991519 L33.1658756,191.991519 L34.1306249,47.89915 C34.1583416,43.7767862 35.8470283,40.0519987 38.5594002,37.3578022 C41.271772,34.6636056 45.0078289,33 49.1302859,33 L49.1302859,33 Z" id="Rectangle-Copy-6" stroke="#FFFFFF" stroke-width="2" opacity="0.400000006"></path>
                </g>
            </g>
        </g>
    </g>
</svg>