<?xml version="1.0" encoding="UTF-8"?>
<svg width="1400px" height="800px" viewBox="0 0 1400 800" version="1.1" xmlns="http://www.w3.org/2000/svg" xmlns:xlink="http://www.w3.org/1999/xlink">
    <title>5A8B6ECB-43E0-4C76-96CC-DF8703F68A58</title>
    <defs>
        <rect id="path-1" x="0" y="0" width="1400" height="800"></rect>
    </defs>
    <g id="FINAL" stroke="none" stroke-width="1" fill="none" fill-rule="evenodd">
        <g id="img-bg-desktop">
            <mask id="mask-2" fill="white">
                <use xlink:href="#path-1"></use>
            </mask>
            <use id="Mask" fill="#EFEEEB" xlink:href="#path-1"></use>
            <path d="M1414.04322,334.039836 C1307.64564,241.893204 1150.69719,211.597762 1030.264,262.918758 C831.586797,347.582094 851.583841,567.50778 824.348595,679.429794 C794.860001,800.610931 615.124099,746.992887 498.27423,902.792501 C394.663893,1040.93962 371.443256,1237.06581 530.507629,1351.06321 L878.333964,1351.06321 C944.167463,1312.43076 997.680376,1246.01334 1015.76036,1142.05658 C1050.00455,945.153935 1277.87965,943.060816 1414.04322,858.329715 L1414.04322,334.039836 Z" id="Fill-36" fill="#E8D5C7" mask="url(#mask-2)" transform="translate(914.951036, 794.563213) rotate(6.000000) translate(-914.951036, -794.563213) "></path>
            <path d="M1018.04657,527.322265 C1046.68205,527.322265 1078.53637,543.177965 1073.03591,591.179009 C1069.41091,622.816222 1047.28621,651.210547 1018.668,650.300993 C982.264658,649.144489 966.784785,624.472727 966.784785,592.658684 C966.784785,560.845658 989.412104,527.322265 1018.04657,527.322265" id="Fill-19-Copy" fill="#F5CBC6" mask="url(#mask-2)" transform="translate(1020.222698, 588.822265) rotate(-229.000000) translate(-1020.222698, -588.822265) "></path>
            <path d="M1243.07009,150.691053 C1223.86583,150.691053 1204.39318,152.280277 1184.86843,155.451281 C1154.7319,160.345909 1126.04358,168.754777 1099.59993,180.444649 C1059.34745,198.239159 1026.57917,222.89384 1004.83745,251.743857 C993.211258,267.170866 984.687014,283.830217 979.500429,301.259573 C974.013616,319.699202 972.211007,339.206997 974.141812,359.240812 C976.823188,387.04582 988.171065,424.816664 1006.09584,465.595577 C1024.64382,507.79127 1048.77206,550.450125 1075.8724,588.960373 C1105.50566,631.068809 1137.52089,666.247187 1168.45679,690.692618 C1203.72491,718.560897 1237.27684,732.691053 1268.1809,732.691053 C1301.87964,732.691053 1336.71395,717.022125 1368.91859,687.37853 C1399.51166,659.219121 1426.53426,619.849955 1447.06597,573.527988 C1473.51995,513.845043 1486.81228,447.50332 1484.49523,386.723675 C1483.2447,353.937196 1477.53705,323.187803 1467.52945,295.330689 C1456.80312,265.469574 1441.15611,239.067284 1421.02387,216.857023 C1404.15899,198.252393 1382.41851,183.183507 1356.40577,172.070105 C1331.85406,161.580731 1304.16195,154.862404 1274.09903,152.100802 C1263.86274,151.160832 1253.50405,150.691053 1243.07009,150.691053" id="Fill-39" stroke="#F8F2EA" stroke-width="2" mask="url(#mask-2)" transform="translate(1229.073122, 441.691053) rotate(41.000000) translate(-1229.073122, -441.691053) "></path>
            <path d="M1170.27229,-92.0328339 C1166.42061,-91.6017098 1163.86121,-90.8570409 1158.26691,-90.1347681 L1158.26691,237.239592 C1175.04983,240.727777 1190.83417,241.799989 1207.46045,239.932717 C1293.18203,230.310812 1370.58208,134.231728 1360.31373,42.5618682 C1350.04538,-49.1107911 1255.99387,-101.65194 1170.27229,-92.0328339" id="Fill-9" fill="#F5CBC6" mask="url(#mask-2)" transform="translate(1259.749634, 73.839868) rotate(-270.000000) translate(-1259.749634, -73.839868) "></path>
            <path d="M36.6337092,401 C81.7986113,401 132.040381,426.008177 123.364863,501.71714 C117.647381,551.616484 82.7515249,596.401029 37.6138489,594.966449 C-19.8027996,593.142369 -44.218208,554.229183 -44.218208,504.050937 C-44.218208,453.874295 -8.52959137,401 36.6337092,401" id="Fill-19" fill="#E1EAD9" mask="url(#mask-2)"></path>
            <path d="M291.130024,600.618112 C300.875345,687.617469 227.417966,778.804803 146.063222,787.933315 C64.7106025,797.061828 -9.14185778,733.93606 -18.8871794,646.936703 C-28.6346251,559.937345 29.416735,482.009102 110.771479,472.880589 C192.126222,463.752077 281.384702,513.618755 291.130024,600.618112" id="Fill-7-Copy" stroke="#F5CBC6" stroke-width="2" mask="url(#mask-2)" transform="translate(136.023251, 630.310878) rotate(-75.000000) translate(-136.023251, -630.310878) "></path>
        </g>
    </g>
</svg>