<?xml version="1.0" encoding="UTF-8"?>
<svg width="430px" height="138px" viewBox="0 0 430 138" version="1.1" xmlns="http://www.w3.org/2000/svg" xmlns:xlink="http://www.w3.org/1999/xlink">
    <title>563F57E1-DF2E-401C-A01C-9F181E6DD68D</title>
    <g id="FINAL" stroke="none" stroke-width="1" fill="none" fill-rule="evenodd" stroke-linecap="round" stroke-linejoin="round">
        <g id="Happy-Hunny-Landing-Phase1-Start" transform="translate(-802.000000, -29.000000)" stroke="#000000" stroke-width="2">
            <g id="img-top-dotted-line" transform="translate(798.107395, 30.508152)">
                <path d="M432.392605,106.059383 C413.933377,125.222805 393.583523,134.774669 360.892605,134.774669 C351.23316,134.774669 330.658346,130.208512 324.837002,127.846859 C311.700237,122.517421 301.916464,114.726406 302.145291,97.9331317 C302.204938,93.5557004 311.700237,81.6902031 317.113064,91.3475604 C318.64596,94.082494 317.773899,97.6549093 317.284329,100.751674 C313.398294,125.332679 281.274221,127.754305 263.844143,114.726406 C254.916101,108.053249 232.420146,88.9949011 225.331204,80.3270068 C201.748684,51.4918475 193.535435,35.9900241 157.458767,14.5785174 C116.507168,-9.72626162 51.2282986,-4.498631 5.66738552,36.7403216" id="Path" stroke-dasharray="6,6"></path>
                <polyline id="Path" transform="translate(7.933462, 36.178103) rotate(-140.000000) translate(-7.933462, -36.178103) " points="0.933461541 40.1781027 7.93346154 32.1781027 14.9334615 40.1781027"></polyline>
            </g>
        </g>
    </g>
</svg>