<?xml version="1.0" encoding="UTF-8"?>
<svg width="157px" height="240px" viewBox="0 0 157 240" version="1.1" xmlns="http://www.w3.org/2000/svg" xmlns:xlink="http://www.w3.org/1999/xlink">
    <title>78A26644-F697-4D4F-A692-75F1E9762516</title>
    <g id="FINAL" stroke="none" stroke-width="1" fill="none" fill-rule="evenodd">
        <g id="Happy-Hunny-Landing-Phase1-Thank-You" transform="translate(-740.000000, -80.000000)">
            <g id="Game-|-Complete" transform="translate(79.072280, 80.000000)">
                <g id="card-5-complete" transform="translate(660.927720, 0.000000)">
                    <path d="M133,1 C139.351275,1 145.101275,3.57436269 149.263456,7.73654403 C153.425637,11.8987254 156,17.6487254 156,24 L156,24 L156,216 C156,222.351275 153.425637,228.101275 149.263456,232.263456 C145.101275,236.425637 139.351275,239 133,239 L133,239 L24,239 C17.6487254,239 11.8987254,236.425637 7.73654403,232.263456 C3.57436269,228.101275 1,222.351275 1,216 L1,216 L1,24 C1,17.6487254 3.57436269,11.8987254 7.73654403,7.73654403 C11.8987254,3.57436269 17.6487254,1 24,1 L24,1 Z" id="card" stroke="#FFFFFF" stroke-width="2"></path>
                    <path d="M104.934594,158.592646 C104.337831,162.809114 103.868248,166.644045 103.242137,170.449627 C100.189845,188.76338 92.8526043,204.87596 78.5400938,217.182958 C75.2149429,219.975488 71.4495514,222.197036 67.3972711,223.757125 C58.5045356,227.239869 50.5803158,224.29519 45.4051155,216.243791 C36.5417289,202.449779 37.1874061,181.025037 47.361713,166.79079 C56.9783896,153.319616 69.5984433,143.957297 85.9751642,140.063668 C87.1491227,139.789745 88.9100604,138.429909 88.9100604,137.520092 C89.252465,129.204552 89.2915969,120.889013 89.3698608,112.553908 C89.2577912,111.766429 89.0643579,110.992696 88.7926645,110.245123 C86.924114,111.614741 85.358836,112.808266 83.754426,113.943092 C73.5116383,121.211852 62.5938243,119.27482 55.7066012,108.72876 C49.3476594,98.9457724 46.3540653,87.9888265 44.6322595,76.6112122 C44.0724157,73.007582 43.7651333,69.369228 43.7126587,65.7227472 C43.6539608,60.8312536 46.2464524,57.7593955 50.453137,57.2506802 C54.7516441,56.856598 58.6551195,59.7683796 59.5024003,64.0009415 C60.5883119,68.5793796 61.0774613,73.3045625 62.3101177,77.8340856 C64.0025745,84.0658486 65.8809081,90.2780456 68.1799101,96.3043658 C70.3223844,101.939367 74.9203884,102.712223 78.6770556,98.0163886 C80.872899,95.2777347 82.4603405,92.1028516 83.3337576,88.7029846 C84.9479505,81.9722893 85.7305895,75.0068023 87.0121608,68.217409 C87.4914333,65.4439302 88.2317087,62.7219443 89.223116,60.0877465 C91.1797135,55.1962528 94.7700698,53.0733446 99.0061034,53.9538134 C103.242137,54.8342823 105.296564,57.4854719 105.374828,63.1400386 C105.697667,86.6779062 106.06942,110.215774 106.128118,133.753642 C106.128118,137.833147 106.881408,140.454988 110.872867,142.264841 C113.686707,143.73093 116.220122,145.681494 118.356852,148.02702 C121.291749,150.961916 121.565672,154.80663 119.65799,157.731744 C117.613345,160.872083 115.236079,161.478628 110.667424,160.128575 C108.935836,159.590511 107.135766,159.169843 104.934594,158.592646 Z M87.8045828,157.663263 C87.2524371,157.531652 86.6889919,157.453032 86.121909,157.428471 C85.3022137,157.471881 84.4891833,157.599737 83.6957281,157.810007 C68.6397105,162.319965 58.7491103,172.200782 54.9141792,187.344846 C53.7793527,191.854804 54.5326427,197.206098 55.6772523,201.853017 C57.3305771,208.554363 62.4764285,210.060943 68.1114292,206.098833 C70.0591183,204.769562 71.7634219,203.114898 73.1496677,201.20734 C76.0843923,197.24604 78.7013422,193.058921 80.9760576,188.685116 C85.7305895,178.999958 87.677404,168.571294 87.8045828,157.663263 L87.8045828,157.663263 Z" id="Shape" fill="#000000" fill-rule="nonzero"></path>
                </g>
            </g>
        </g>
    </g>
</svg>