<?xml version="1.0" encoding="UTF-8"?>
<svg width="158px" height="240px" viewBox="0 0 158 240" version="1.1" xmlns="http://www.w3.org/2000/svg" xmlns:xlink="http://www.w3.org/1999/xlink">
    <title>7154CBE2-3AAA-4243-8BAD-6477E6E0BD4E</title>
    <g id="FINAL" stroke="none" stroke-width="1" fill="none" fill-rule="evenodd">
        <g id="Happy-Hunny-Landing-Phase1-Thank-You" transform="translate(-79.000000, -80.000000)">
            <g id="card-1-complete" transform="translate(79.072280, 80.000000)">
                <path d="M133,1 C139.351275,1 145.101275,3.57436269 149.263456,7.73654403 C153.425637,11.8987254 156,17.6487254 156,24 L156,24 L156,216 C156,222.351275 153.425637,228.101275 149.263456,232.263456 C145.101275,236.425637 139.351275,239 133,239 L133,239 L24,239 C17.6487254,239 11.8987254,236.425637 7.73654403,232.263456 C3.57436269,228.101275 1,222.351275 1,216 L1,216 L1,24 C1,17.6487254 3.57436269,11.8987254 7.73654403,7.73654403 C11.8987254,3.57436269 17.6487254,1 24,1 L24,1 Z" id="card" stroke="#FFFFFF" stroke-width="2"></path>
                <path d="M66.300682,76.1807608 C68.8344757,74.3806911 70.928035,72.7371492 73.1487731,71.347965 C83.4013439,64.9792402 93.0767184,66.9358377 99.1519536,77.3253703 C102.360773,82.8234092 105.882649,103.279636 107.956642,109.374437 C110.187163,115.938821 111.967667,122.542338 116.839595,127.962113 C120.674526,132.237278 116.604803,139.701698 110.236078,140.895222 C105.217406,141.795257 100.599836,139.104936 98.4182295,133.499284 C95.3463715,125.633762 90.8168483,103.543776 87.9210841,95.5902077 C87.236275,93.7118741 86.6786447,91.7748426 85.8470908,89.96499 C84.2133319,86.4528975 80.6816734,85.9735311 78.2848415,88.9866912 C77.2368688,90.4024619 76.4394143,91.987444 75.9271415,93.6727422 C73.266169,101.714358 70.7519412,109.795105 68.1496666,117.846504 C67.6315551,119.651066 66.9774845,121.413786 66.1930691,123.119534 C65.0294403,125.805954 62.2566234,127.426072 59.3449779,127.120776 C56.3804511,127.023575 53.8880536,124.865673 53.3675726,121.945576 C52.6317187,118.622235 52.1897792,115.24058 52.0468693,111.83975 C51.512066,84.0756316 51.0457436,56.3082524 50.6479022,28.5376122 C50.6153199,26.8949588 50.7695771,25.2539254 51.1077026,23.6461185 C51.8644698,20.1506049 55.0842139,17.7493691 58.6503858,18.0209008 C62.0989856,18.1938277 64.879403,20.9071461 65.1365065,24.3504936 C65.478911,28.2049906 65.50826,32.1084026 65.5571749,35.9824656 C65.7137027,48.3383787 65.8115326,60.6942917 65.9484944,73.0404218 C65.9582774,73.9404566 66.1441542,74.8307085 66.300682,76.1807608 Z" id="Path" fill="#000000" fill-rule="nonzero"></path>
            </g>
        </g>
    </g>
</svg>