<?xml version="1.0" encoding="UTF-8"?>
<svg width="157px" height="240px" viewBox="0 0 157 240" version="1.1" xmlns="http://www.w3.org/2000/svg" xmlns:xlink="http://www.w3.org/1999/xlink">
    <title>D0FA35D5-8F73-42CF-B2E4-16CBBAF85313</title>
    <g id="FINAL" stroke="none" stroke-width="1" fill="none" fill-rule="evenodd">
        <g id="Happy-Hunny-Landing-Phase1-Thank-You" transform="translate(-245.000000, -328.000000)">
            <g id="Game-|-Complete" transform="translate(79.072280, 80.000000)">
                <g id="card-7-complete" transform="translate(165.927720, 248.000000)">
                    <path d="M133,1 C139.351275,1 145.101275,3.57436269 149.263456,7.73654403 C153.425637,11.8987254 156,17.6487254 156,24 L156,24 L156,216 C156,222.351275 153.425637,228.101275 149.263456,232.263456 C145.101275,236.425637 139.351275,239 133,239 L133,239 L24,239 C17.6487254,239 11.8987254,236.425637 7.73654403,232.263456 C3.57436269,228.101275 1,222.351275 1,216 L1,216 L1,24 C1,17.6487254 3.57436269,11.8987254 7.73654403,7.73654403 C11.8987254,3.57436269 17.6487254,1 24,1 L24,1 Z" id="card" stroke="#FFFFFF" stroke-width="2"></path>
                    <path d="M88.9245851,66.5368398 C89.0224149,60.999669 89.4137344,54.797255 92.6812522,53.5059006 C95.94877,52.2145463 99.7054372,53.0363172 100.879396,55.9712135 C104.420837,64.7759021 105.946983,81.4558956 102.914257,95.6314443 C101.229555,104.55245 95.9145115,112.372652 88.2397759,117.222497 C78.3100438,123.542307 68.2335667,121.68354 61.1311179,112.331004 C56.1515773,105.786185 52.8742766,98.4098127 52.5905699,90.2605842 C52.2188164,79.7145238 52.7568807,79.6851749 52.9623234,69.1195485 C53.0243663,68.06008 53.2283703,67.0137369 53.5688687,66.0085585 C54.7917421,61.8899208 57.4820636,59.7180976 61.1311179,59.8844084 C65.1358519,59.8572023 68.4102224,63.0703697 68.4585755,67.0749041 C67.4802767,94.6433626 69.2314315,101.677331 76.7154168,102.244744 C80.6286118,102.342574 84.0624403,100.767513 85.6864162,97.1184584 C87.0712417,94.1404278 87.9001093,90.934368 88.1321631,87.6583096 C88.3767378,82.4048454 88.8365382,71.8783509 88.9245851,66.5368398 Z" id="Path" fill="#000000" fill-rule="nonzero"></path>
                </g>
            </g>
        </g>
    </g>
</svg>