<?xml version="1.0" encoding="UTF-8"?>
<svg width="157px" height="240px" viewBox="0 0 157 240" version="1.1" xmlns="http://www.w3.org/2000/svg" xmlns:xlink="http://www.w3.org/1999/xlink">
    <title>B281CC85-9DDF-409B-956B-0EC7C1C025B6</title>
    <g id="FINAL" stroke="none" stroke-width="1" fill="none" fill-rule="evenodd">
        <g id="Happy-Hunny-Landing-Phase1-Thank-You" transform="translate(-410.000000, -328.000000)">
            <g id="Game-|-Complete" transform="translate(79.072280, 80.000000)">
                <g id="card-8-complete" transform="translate(330.927720, 248.000000)">
                    <path d="M133,1 C139.351275,1 145.101275,3.57436269 149.263456,7.73654403 C153.425637,11.8987254 156,17.6487254 156,24 L156,24 L156,216 C156,222.351275 153.425637,228.101275 149.263456,232.263456 C145.101275,236.425637 139.351275,239 133,239 L133,239 L24,239 C17.6487254,239 11.8987254,236.425637 7.73654403,232.263456 C3.57436269,228.101275 1,222.351275 1,216 L1,216 L1,24 C1,17.6487254 3.57436269,11.8987254 7.73654403,7.73654403 C11.8987254,3.57436269 17.6487254,1 24,1 L24,1 Z" id="card" stroke="#FFFFFF" stroke-width="2"></path>
                    <path d="M66.2661913,70.7826564 C67.4988477,69.3445572 68.4869294,68.0532029 69.621756,66.8694614 C72.3514131,64.0474595 75.4053659,61.5583237 78.7199342,59.453957 C84.8636503,55.3646682 93.1889726,59.1800333 98.0706833,66.4977079 C101.592559,71.7707381 106.102516,93.8313746 110.24072,106.089458 C112.119053,111.646195 109.673306,116.048539 104.635068,117.633383 C99.9196679,119.110614 96.0749539,117.692081 94.1966203,113.094077 C91.2617241,105.815534 87.5148399,77.0535513 82.0950649,78.002501 C75.2469737,79.2155915 69.9543776,99.5250733 66.7064257,107.733 C65.3133823,111.827278 61.8613693,114.881268 57.6278135,115.764832 C53.4015629,116.743131 50.3884028,114.786534 49.8014235,110.482019 C49.6155468,108.965656 49.5177169,107.429727 49.449236,105.903581 C48.8492128,93.2248294 48.2687555,80.5460778 47.7078642,67.8673261 C47.6115744,66.2382498 47.6115744,64.6049087 47.7078642,62.9758324 C47.9720049,59.3169951 50.1242621,57.1940869 53.5776567,56.4799288 C57.0310512,55.7657707 60.0931263,56.6462396 61.7268852,59.8648424 C63.3606441,63.0834453 64.6617814,66.7814145 66.2661913,70.7826564 Z" id="Path" fill="#000000" fill-rule="nonzero"></path>
                </g>
            </g>
        </g>
    </g>
</svg>