<?xml version="1.0" encoding="UTF-8"?>
<svg width="157px" height="240px" viewBox="0 0 157 240" version="1.1" xmlns="http://www.w3.org/2000/svg" xmlns:xlink="http://www.w3.org/1999/xlink">
    <title>3AED0160-0243-41FC-8A01-700E01795F6E</title>
    <g id="FINAL" stroke="none" stroke-width="1" fill="none" fill-rule="evenodd">
        <g id="Happy-Hunny-Landing-Phase1-Thank-You" transform="translate(-410.000000, -80.000000)">
            <g id="Game-|-Complete" transform="translate(79.072280, 80.000000)">
                <g id="card-3-complete" transform="translate(330.927720, 0.000000)">
                    <path d="M133,1 C139.351275,1 145.101275,3.57436269 149.263456,7.73654403 C153.425637,11.8987254 156,17.6487254 156,24 L156,24 L156,216 C156,222.351275 153.425637,228.101275 149.263456,232.263456 C145.101275,236.425637 139.351275,239 133,239 L133,239 L24,239 C17.6487254,239 11.8987254,236.425637 7.73654403,232.263456 C3.57436269,228.101275 1,222.351275 1,216 L1,216 L1,24 C1,17.6487254 3.57436269,11.8987254 7.73654403,7.73654403 C11.8987254,3.57436269 17.6487254,1 24,1 L24,1 Z" id="card" stroke="#FFFFFF" stroke-width="2"></path>
                    <path d="M58.1026433,81.3266121 C58.28852,76.4351184 58.1026433,58.4539876 70.4194244,60.2149253 C71.7792596,60.4105851 73.9412998,63.7368008 73.9412998,63.7368008 C79.21433,58.4539876 83.9590789,57.5343868 88.6744788,57.0648034 C98.5259471,56.0865047 102.898942,59.4322864 106.499082,66.7793099 C113.347173,80.6907179 113.934152,101.704575 95.0627696,113.894177 C89.9606584,117.032247 84.603504,119.735369 79.0480192,121.974925 C76.2011699,123.188015 75.0663434,124.811991 75.1348243,127.727321 C75.1348243,134.908034 75.1348243,142.088747 75.1348243,149.249894 C75.1348243,161.840598 75.2424372,174.441086 75.2522201,187.041574 C75.2522201,190.416704 74.4597982,193.390733 70.673782,194.49621 C68.1747001,195.455143 65.342516,194.659585 63.708295,192.539613 C59.9516279,188.029656 58.8168013,182.756625 58.8168013,177.053144 C58.6211416,155.628401 58.4189598,134.203659 58.2102561,112.778917 C58.0928603,109.501616 57.4667491,99.0338193 58.1026433,81.3266121 Z M74.9782965,103.8177 C86.8841921,102.555695 96.6769625,91.7846256 96.1682472,81.3168291 C95.9041065,75.9361861 91.609375,73.0795538 86.5907025,75.1046321 C81.6992088,77.0612296 78.2849462,80.7396329 75.4870118,85.0637133 C75.1759101,85.552538 75.0065765,86.1181123 74.9978625,86.6974722 C74.9782965,92.3716049 74.9782965,97.9381247 74.9782965,103.8177 Z" id="Shape" fill="#000000" fill-rule="nonzero"></path>
                </g>
            </g>
        </g>
    </g>
</svg>