<?xml version="1.0" encoding="UTF-8"?>
<svg width="157px" height="240px" viewBox="0 0 157 240" version="1.1" xmlns="http://www.w3.org/2000/svg" xmlns:xlink="http://www.w3.org/1999/xlink">
    <title>53483FA7-6051-4329-9209-770A10D0191C</title>
    <g id="FINAL" stroke="none" stroke-width="1" fill="none" fill-rule="evenodd">
        <g id="Happy-Hunny-Landing-Phase1-Thank-You" transform="translate(-245.000000, -80.000000)">
            <g id="Game-|-Complete" transform="translate(79.072280, 80.000000)">
                <g id="card-2-complete" transform="translate(165.927720, 0.000000)">
                    <path d="M133,1 C139.351275,1 145.101275,3.57436269 149.263456,7.73654403 C153.425637,11.8987254 156,17.6487254 156,24 L156,24 L156,216 C156,222.351275 153.425637,228.101275 149.263456,232.263456 C145.101275,236.425637 139.351275,239 133,239 L133,239 L24,239 C17.6487254,239 11.8987254,236.425637 7.73654403,232.263456 C3.57436269,228.101275 1,222.351275 1,216 L1,216 L1,24 C1,17.6487254 3.57436269,11.8987254 7.73654403,7.73654403 C11.8987254,3.57436269 17.6487254,1 24,1 L24,1 Z" id="card" stroke="#FFFFFF" stroke-width="2"></path>
                    <path d="M84.9751263,111.732137 C80.4064712,116.516018 75.2899688,119.07916 69.8506279,121.789048 C59.2947845,127.071861 48.4552344,122.02384 46.0290536,118.785671 C41.7049732,112.994142 41.4701815,102.722006 44.6887843,93.066197 C47.2770707,85.4545532 51.5894376,78.5440523 57.2892721,72.874111 C59.4153956,70.6833382 61.8551585,68.8205463 64.5286827,67.3467231 C72.0224511,63.3259153 79.5162194,62.7487191 86.6675832,68.6282945 C87.035163,68.3023302 87.3634796,67.9346156 87.6458819,67.5325999 C89.2111599,64.5292228 91.5590769,62.7682851 95.0418204,63.3552643 C98.4484757,63.8178857 101.115933,66.5174806 101.537724,69.9294318 C101.867791,72.5965873 101.952932,75.2883642 101.792082,77.9710474 C101.733384,83.4690864 101.058358,89.0356062 101.606205,94.4749472 C102.339929,101.802405 106.106379,104.659037 113.433837,104.688386 C116.016545,104.688386 118.609037,104.590556 121.191746,104.688386 C124.958196,104.884046 126.611521,117.005167 122.629845,119.998761 C115.595877,125.271791 99.7572203,125.271791 90.9036167,118.374785 C88.8198404,116.388839 87.0197707,114.050705 84.9751263,111.732137 Z M58.2382218,101.55783 C57.6023277,107.183048 60.8209305,108.758109 65.3993686,106.879775 C72.9518349,103.788351 78.6455335,98.9262064 81.9717492,91.0998165 C82.2763909,90.5184035 82.3156082,89.8338843 82.0793621,89.2214829 C79.9760198,84.2419424 72.6094303,81.6201017 68.3831797,84.7800067 C62.8525656,88.7528574 59.1872206,94.8146381 58.2382218,101.55783 Z" id="Shape" fill="#000000" fill-rule="nonzero"></path>
                </g>
            </g>
        </g>
    </g>
</svg>