<?xml version="1.0" encoding="UTF-8"?>
<svg width="157px" height="240px" viewBox="0 0 157 240" version="1.1" xmlns="http://www.w3.org/2000/svg" xmlns:xlink="http://www.w3.org/1999/xlink">
    <title>76DCB2E6-78CD-4851-B625-9A5A6294798E</title>
    <g id="FINAL" stroke="none" stroke-width="1" fill="none" fill-rule="evenodd">
        <g id="Happy-Hunny-Landing-Phase1-Thank-You" transform="translate(-575.000000, -80.000000)">
            <g id="Game-|-Complete" transform="translate(79.072280, 80.000000)">
                <g id="card-4-complete" transform="translate(495.927720, 0.000000)">
                    <path d="M133,1 C139.351275,1 145.101275,3.57436269 149.263456,7.73654403 C153.425637,11.8987254 156,17.6487254 156,24 L156,24 L156,216 C156,222.351275 153.425637,228.101275 149.263456,232.263456 C145.101275,236.425637 139.351275,239 133,239 L133,239 L24,239 C17.6487254,239 11.8987254,236.425637 7.73654403,232.263456 C3.57436269,228.101275 1,222.351275 1,216 L1,216 L1,24 C1,17.6487254 3.57436269,11.8987254 7.73654403,7.73654403 C11.8987254,3.57436269 17.6487254,1 24,1 L24,1 Z" id="card" stroke="#FFFFFF" stroke-width="2"></path>
                    <path d="M48.0586495,81.3266121 C48.2347433,76.4351184 48.0586495,58.4539876 60.3656477,60.2149253 C61.7254829,60.4105851 63.8875231,63.7368008 63.8875231,63.7368008 C69.1703363,58.4539876 73.9053022,57.5343868 78.6207021,57.0648034 C88.4721704,56.0865047 92.8451658,59.4322864 96.4453051,66.7793099 C103.293396,80.6907179 103.880376,101.704575 85.0089929,113.894177 C79.9068817,117.032247 74.5497273,119.735369 68.9942425,121.974925 C66.1473932,123.188015 65.0125667,124.811991 65.0810476,127.727321 C65.0810476,134.908034 65.0810476,142.088747 65.0810476,149.249894 C65.0810476,161.840598 65.1886604,174.441086 65.1984434,187.041574 C65.1984434,190.416704 64.4158044,193.390733 60.6200053,194.49621 C58.1209233,195.455143 55.2887393,194.659585 53.6545183,192.539613 C49.9076341,188.029656 48.7630246,182.756625 48.7630246,177.053144 C48.5673649,155.628401 48.3651831,134.203659 48.1564794,112.778917 C48.0390835,109.501616 47.3738404,99.0338193 48.0586495,81.3266121 Z M64.9832177,103.8177 C76.8891133,102.555695 86.6818837,91.7846256 86.1731684,81.3168291 C85.9090277,75.9361861 81.6142962,73.0795538 76.5956237,75.1046321 C71.70413,77.0612296 68.2898674,80.7396329 65.491933,85.0637133 C65.1808313,85.552538 65.0114977,86.1181123 65.0027837,86.6974722 C64.9832177,92.3716049 64.9832177,97.9381247 64.9832177,103.8177 Z" id="Shape" fill="#000000" fill-rule="nonzero"></path>
                </g>
            </g>
        </g>
    </g>
</svg>