<?xml version="1.0" encoding="UTF-8"?>
<svg width="158px" height="240px" viewBox="0 0 158 240" version="1.1" xmlns="http://www.w3.org/2000/svg" xmlns:xlink="http://www.w3.org/1999/xlink">
    <title>EF10072B-C5D3-4DF6-8A7D-929321763BF2</title>
    <g id="FINAL" stroke="none" stroke-width="1" fill="none" fill-rule="evenodd">
        <g id="Happy-Hunny-Landing-Phase1-Thank-You" transform="translate(-79.000000, -328.000000)">
            <g id="Game-|-Complete" transform="translate(79.072280, 80.000000)">
                <g id="card-6-complete" transform="translate(0.000000, 248.000000)">
                    <path d="M133,1 C139.351275,1 145.101275,3.57436269 149.263456,7.73654403 C153.425637,11.8987254 156,17.6487254 156,24 L156,24 L156,216 C156,222.351275 153.425637,228.101275 149.263456,232.263456 C145.101275,236.425637 139.351275,239 133,239 L133,239 L24,239 C17.6487254,239 11.8987254,236.425637 7.73654403,232.263456 C3.57436269,228.101275 1,222.351275 1,216 L1,216 L1,24 C1,17.6487254 3.57436269,11.8987254 7.73654403,7.73654403 C11.8987254,3.57436269 17.6487254,1 24,1 L24,1 Z" id="card" stroke="#FFFFFF" stroke-width="2"></path>
                    <path d="M68.7033896,73.6979866 C71.2371834,71.9076999 73.3307427,70.254375 75.5514808,68.8651908 C85.7649196,62.535598 95.4402942,64.4334975 101.515529,74.8425961 C104.724349,80.340635 108.246225,100.796862 110.320218,106.891663 C112.550739,113.456047 114.331243,120.059564 119.203171,125.479339 C123.038102,129.754504 118.968379,137.218924 112.599654,138.412448 C107.580982,139.322266 102.963411,136.622161 100.781805,131.01651 C97.7099472,123.121639 93.1804241,101.051219 90.2846598,93.0976506 C89.5998507,91.219317 89.0422204,89.2822855 88.2106665,87.4724328 C86.5769076,83.9701233 83.0452491,83.480974 80.6484172,86.4941341 C79.6024112,87.9111142 78.8051334,89.4957452 78.2907173,91.180185 C75.6297447,99.2218007 73.115517,107.302548 70.4643274,115.353947 C69.9495017,117.159587 69.295339,118.922555 68.5077299,120.626977 C67.3448221,123.315055 64.5730207,124.938539 61.6596387,124.638002 C58.6934974,124.536178 56.2020592,122.375029 55.6822334,119.453019 C54.9649537,116.124815 54.5426487,112.739827 54.4202281,109.33741 C53.8789028,81.5667694 53.4125804,53.7993903 53.0212609,26.0352721 C52.9882545,24.392603 53.1425162,22.7515216 53.4810613,21.1437784 C54.2488323,17.6377375 57.4964376,15.2438841 61.0726595,15.5479096 C64.5212593,15.7208366 67.3016767,18.4341549 67.5587801,21.8775024 C67.9011847,25.7906974 67.9305336,29.6354114 67.9794486,33.5094744 C68.1359764,45.8653875 68.2338062,58.2213006 68.3707681,70.5674306 C68.3512021,71.4576825 68.5370789,72.3479343 68.7033896,73.6979866 Z" id="Path" fill="#000000" fill-rule="nonzero"></path>
                </g>
            </g>
        </g>
    </g>
</svg>