<?xml version="1.0" encoding="UTF-8"?>
<svg width="157px" height="240px" viewBox="0 0 157 240" version="1.1" xmlns="http://www.w3.org/2000/svg" xmlns:xlink="http://www.w3.org/1999/xlink">
    <title>4E34DAB6-27DF-47D4-94BA-AB21073D0CE5</title>
    <g id="FINAL" stroke="none" stroke-width="1" fill="none" fill-rule="evenodd">
        <g id="Happy-Hunny-Landing-Phase1-Thank-You" transform="translate(-740.000000, -328.000000)">
            <g id="Game-|-Complete" transform="translate(79.072280, 80.000000)">
                <g id="card-10-complete" transform="translate(660.927720, 248.000000)">
                    <path d="M133,1 C139.351275,1 145.101275,3.57436269 149.263456,7.73654403 C153.425637,11.8987254 156,17.6487254 156,24 L156,24 L156,216 C156,222.351275 153.425637,228.101275 149.263456,232.263456 C145.101275,236.425637 139.351275,239 133,239 L133,239 L24,239 C17.6487254,239 11.8987254,236.425637 7.73654403,232.263456 C3.57436269,228.101275 1,222.351275 1,216 L1,216 L1,24 C1,17.6487254 3.57436269,11.8987254 7.73654403,7.73654403 C11.8987254,3.57436269 17.6487254,1 24,1 L24,1 Z" id="card" stroke="#FFFFFF" stroke-width="2"></path>
                    <path d="M103.39329,157.87081 C102.796528,162.087278 102.326944,165.922209 101.700833,169.727791 C98.6583242,188.041543 91.3113006,204.173689 76.9987901,216.461121 C73.6736393,219.253652 69.9082477,221.4752 65.8559675,223.035289 C56.9632319,226.518033 49.0390122,223.573353 43.8638118,215.521955 C35.0004253,201.727942 35.6461024,180.3032 45.8204093,166.068953 C55.4370859,152.59778 68.0571396,143.235461 84.4338605,139.341832 C85.607819,139.067908 87.3687567,137.708073 87.3687567,136.798255 C87.7111613,128.482716 87.7502932,120.167177 87.8285571,111.832071 C87.7164876,111.044593 87.5230542,110.270859 87.2513609,109.523286 C85.3828103,110.892905 83.8175323,112.086429 82.2131224,113.221256 C71.9703346,120.490015 61.0525207,118.552984 54.1652975,108.006923 C47.8063557,98.223936 44.8127616,87.2572071 43.0909558,75.8893758 C42.531112,72.2857456 42.2238297,68.6473916 42.171355,65.0009108 C42.1126571,60.0605022 44.7051487,57.0375591 48.9118333,56.5288437 C53.2103404,56.1347615 57.1138159,59.0465432 57.9610966,63.279105 C59.0470082,67.8575431 59.5361576,72.582726 60.768814,77.1122492 C62.4612708,83.3440122 64.3396044,89.5562091 66.6386065,95.5825294 C68.7810807,101.21753 73.3790848,101.990386 77.1357519,97.2945522 C79.3315953,94.5558983 80.9190368,91.3810152 81.7924539,87.9811482 C83.4066468,81.2504529 84.1892858,74.2849658 85.4708572,67.4955726 C85.9495292,64.7187753 86.689812,61.9934866 87.6818123,59.3561271 C89.6384098,54.4646334 93.2287662,52.3417251 97.4647997,53.212411 C101.700833,54.0830969 103.755261,56.7538524 103.833524,62.4084192 C104.156363,85.9462868 104.528117,109.484154 104.586815,133.022022 C104.586815,137.101528 105.340105,139.713585 109.331563,141.533221 C112.145403,142.99931 114.678818,144.949874 116.815549,147.295401 C119.750445,150.230297 120.024369,154.075011 118.116686,157.000124 C116.072042,160.140463 113.694776,160.747008 109.126121,159.396956 C107.394532,158.868675 105.594462,158.448006 103.39329,157.87081 Z M86.2632791,156.990341 C85.7111334,156.85873 85.1476883,156.78011 84.5806053,156.755549 C83.76091,156.79896 82.9478797,156.926815 82.1544244,157.137086 C67.0984069,161.647043 57.2078066,171.52786 53.3728756,186.671925 C52.238049,191.181882 52.9913391,196.533176 54.1359486,201.180095 C55.7892734,207.881442 60.9351248,209.388022 66.5701255,205.425912 C68.5178146,204.09664 70.2221183,202.441976 71.608364,200.534418 C74.5430887,196.573119 77.1600385,192.385999 79.434754,188.012194 C84.1892858,178.278122 86.1361003,167.849457 86.2632791,156.990341 Z" id="Shape" fill="#000000" fill-rule="nonzero"></path>
                </g>
            </g>
        </g>
    </g>
</svg>