<?xml version="1.0" encoding="UTF-8"?>
<svg width="147px" height="220px" viewBox="0 0 147 220" version="1.1" xmlns="http://www.w3.org/2000/svg" xmlns:xlink="http://www.w3.org/1999/xlink">
    <title>B9554CBB-30C1-4BD2-A16B-C3133B85D23D</title>
    <defs>
        <path d="M21.1265612,0 L115.873439,0 C127.541316,-2.14335433e-15 137,9.45868362 137,21.1265612 L137,188.30019 C137,199.968068 127.541316,209.426752 115.873439,209.426752 L21.1265612,209.426752 C9.45868362,209.426752 1.42890289e-15,199.968068 0,188.30019 L0,21.1265612 C-1.42890289e-15,9.45868362 9.45868362,2.14335433e-15 21.1265612,0 Z" id="path-1"></path>
        <filter x="-6.2%" y="-3.1%" width="112.4%" height="108.1%" filterUnits="objectBoundingBox" id="filter-2">
            <feOffset dx="0" dy="2" in="SourceAlpha" result="shadowOffsetOuter1"></feOffset>
            <feGaussianBlur stdDeviation="2.5" in="shadowOffsetOuter1" result="shadowBlurOuter1"></feGaussianBlur>
            <feComposite in="shadowBlurOuter1" in2="SourceAlpha" operator="out" result="shadowBlurOuter1"></feComposite>
            <feColorMatrix values="0 0 0 0 0   0 0 0 0 0   0 0 0 0 0  0 0 0 0.1 0" type="matrix" in="shadowBlurOuter1"></feColorMatrix>
        </filter>
    </defs>
    <g id="FINAL" stroke="none" stroke-width="1" fill="none" fill-rule="evenodd">
        <g id="Happy-Hunny-Landing-Phase-1-768" transform="translate(-599.000000, -580.000000)">
            <g id="Game" transform="translate(24.000000, 358.000000)">
                <g id="card-10" transform="translate(580.000000, 225.426752)">
                    <g id="Rectangle-Copy-9">
                        <use fill="black" fill-opacity="1" filter="url(#filter-2)" xlink:href="#path-1"></use>
                        <path stroke="#FFFFFF" stroke-width="4.40136691" d="M115.873439,2.20068346 C121.099676,2.20068346 125.831145,4.31903447 129.256055,7.7439447 C132.680966,11.1688549 134.799317,15.9003244 134.799317,21.1265612 L134.799317,21.1265612 L134.799317,188.30019 C134.799317,193.526427 132.680966,198.257897 129.256055,201.682807 C125.831145,205.107717 121.099676,207.226068 115.873439,207.226068 L115.873439,207.226068 L21.1265612,207.226068 C15.9003244,207.226068 11.1688549,205.107717 7.7439447,201.682807 C4.31903447,198.257897 2.20068346,193.526427 2.20068346,188.30019 L2.20068346,188.30019 L2.20068346,21.1265612 C2.20068346,15.9003244 4.31903447,11.1688549 7.7439447,7.7439447 C11.1688549,4.31903447 15.9003244,2.20068346 21.1265612,2.20068346 L21.1265612,2.20068346 Z" stroke-linejoin="square" fill="#FFD343" fill-rule="evenodd"></path>
                    </g>
                    <path d="M94.9447926,28.8038403 C98.5910043,28.8038403 101.892029,30.2817596 104.281502,32.6712318 C106.670974,35.0607041 108.148893,38.3617293 108.148893,42.007941 L108.148893,42.007941 L108.148893,166.359603 C108.148893,169.965176 106.702543,173.23733 104.354913,175.62232 C102.007282,178.00731 98.75837,179.505137 95.1532461,179.562058 L95.1532461,179.562058 L42.3601927,180.395608 C38.7144353,180.453171 35.3904896,179.027549 32.9635924,176.676097 C30.5388563,174.326739 29.009572,171.0532 28.9494411,167.411345 L28.9494411,167.411345 L29.7896177,41.9191654 C29.8140159,38.2903583 31.3005219,35.011527 33.6881506,32.6398975 C36.0757793,30.268268 39.3645308,28.8038403 42.9934199,28.8038403 L42.9934199,28.8038403 Z" id="Rectangle-Copy-4" stroke="#FFFFFF" stroke-width="1.76054676" opacity="0.400000006"></path>
                </g>
            </g>
        </g>
    </g>
</svg>